# vtk DataFile Version 2.0
radiation power in cartesians- Number_Parameters=  6    1    0   -3    1    0    0                                                                                                                                                                              
ASCII
           
DATASET UNSTRUCTURED_GRID
POINTS        209 float
  2514.5347      -219.99327      -1704.9000    
  2525.1262      -220.91991      -1685.4283    
  2535.7173      -221.84651      -1665.9567    
  2546.3086      -222.77312      -1646.4850    
  2552.2441      -223.29242      -1631.5900    
  2558.1799      -223.81174      -1616.6951    
  2564.1155      -224.33104      -1601.7999    
  2583.8501      -226.05759      -1607.3717    
  2603.5847      -227.78415      -1612.9432    
  2623.3191      -229.51068      -1618.5150    
  2643.4856      -231.27502      -1624.6283    
  2663.6519      -233.03935      -1630.7417    
  2683.8184      -234.80368      -1636.8550    
  2703.9846      -236.56799      -1643.1350    
  2724.1509      -238.33232      -1649.4150    
  2744.3174      -240.09665      -1655.6949    
  2764.2112      -241.83713      -1661.1400    
  2784.1050      -243.57764      -1666.5850    
  2803.9993      -245.31813      -1672.0300    
  2517.9912      -176.07510      -1704.9000    
  2528.5972      -176.81673      -1685.4283    
  2539.2026      -177.55835      -1665.9567    
  2549.8088      -178.29999      -1646.4850    
  2555.7524      -178.71562      -1631.5900    
  2561.6963      -179.13126      -1616.6951    
  2567.6401      -179.54688      -1601.7999    
  2587.4019      -180.92876      -1607.3717    
  2607.1633      -182.31062      -1612.9432    
  2626.9253      -183.69250      -1618.5150    
  2647.1194      -185.10461      -1624.6283    
  2667.3132      -186.51672      -1630.7417    
  2687.5073      -187.92883      -1636.8550    
  2707.7014      -189.34091      -1643.1350    
  2727.8955      -190.75302      -1649.4150    
  2748.0896      -192.16513      -1655.6949    
  2768.0107      -193.55817      -1661.1400    
  2787.9321      -194.95120      -1666.5850    
  2807.8535      -196.34424      -1672.0300    
  2520.6807      -132.10329      -1704.9000    
  2531.2979      -132.65970      -1685.4283    
  2541.9150      -133.21611      -1665.9567    
  2552.5322      -133.77254      -1646.4850    
  2558.4822      -134.08438      -1631.5900    
  2564.4324      -134.39621      -1616.6951    
  2570.3826      -134.70805      -1601.7999    
  2590.1653      -135.74483      -1607.3717    
  2609.9482      -136.78159      -1612.9432    
  2629.7310      -137.81836      -1618.5150    
  2649.9468      -138.87782      -1624.6283    
  2670.1621      -139.93729      -1630.7417    
  2690.3779      -140.99673      -1636.8550    
  2710.5935      -142.05618      -1643.1350    
  2730.8091      -143.11565      -1649.4150    
  2751.0247      -144.17509      -1655.6949    
  2770.9673      -145.22025      -1661.1400    
  2790.9097      -146.26538      -1666.5850    
  2810.8525      -147.31055      -1672.0300    
  2522.6023      -88.091209      -1704.9000    
  2533.2278      -88.462257      -1685.4283    
  2543.8525      -88.833298      -1665.9567    
  2554.4780      -89.204330      -1646.4850    
  2560.4326      -89.412277      -1631.5900    
  2566.3875      -89.620216      -1616.6951    
  2572.3420      -89.828163      -1601.7999    
  2592.1399      -90.519516      -1607.3717    
  2611.9377      -91.210876      -1612.9432    
  2631.7358      -91.902237      -1618.5150    
  2651.9668      -92.608719      -1624.6283    
  2672.1978      -93.315208      -1630.7417    
  2692.4287      -94.021690      -1636.8550    
  2712.6599      -94.728165      -1643.1350    
  2732.8909      -95.434654      -1649.4150    
  2753.1218      -96.141136      -1655.6949    
  2773.0796      -96.838081      -1661.1400    
  2793.0374      -97.535011      -1666.5850    
  2812.9951      -98.231956      -1672.0300    
  2523.7556      -44.052315      -1704.9000    
  2534.3857      -44.237865      -1685.4283    
  2545.0156      -44.423412      -1665.9567    
  2555.6458      -44.608963      -1646.4850    
  2561.6030      -44.712948      -1631.5900    
  2567.5608      -44.816936      -1616.6951    
  2573.5181      -44.920921      -1601.7999    
  2593.3250      -45.266655      -1607.3717    
  2613.1318      -45.612389      -1612.9432    
  2632.9390      -45.958118      -1618.5150    
  2653.1792      -46.311413      -1624.6283    
  2673.4194      -46.664711      -1630.7417    
  2693.6597      -47.018005      -1636.8550    
  2713.8999      -47.371300      -1643.1350    
  2734.1401      -47.724594      -1649.4150    
  2754.3804      -48.077888      -1655.6949    
  2774.3474      -48.426411      -1661.1400    
  2794.3145      -48.774940      -1666.5850    
  2814.2812      -49.123463      -1672.0300    
  2524.1399      -0.0000000      -1704.9000    
  2534.7717      -0.0000000      -1685.4283    
  2545.4033      -0.0000000      -1665.9567    
  2556.0352      -0.0000000      -1646.4850    
  2561.9934      -0.0000000      -1631.5900    
  2567.9517      -0.0000000      -1616.6951    
  2573.9099      -0.0000000      -1601.7999    
  2593.7200      -0.0000000      -1607.3717    
  2613.5300      -0.0000000      -1612.9432    
  2633.3398      -0.0000000      -1618.5150    
  2653.5833      -0.0000000      -1624.6283    
  2673.8267      -0.0000000      -1630.7417    
  2694.0701      -0.0000000      -1636.8550    
  2714.3132      -0.0000000      -1643.1350    
  2734.5566      -0.0000000      -1649.4150    
  2754.8000      -0.0000000      -1655.6949    
  2774.7700      -0.0000000      -1661.1400    
  2794.7400      -0.0000000      -1666.5850    
  2814.7100      -0.0000000      -1672.0300    
  2523.7556       44.052315      -1704.9000    
  2534.3857       44.237865      -1685.4283    
  2545.0156       44.423412      -1665.9567    
  2555.6458       44.608963      -1646.4850    
  2561.6030       44.712948      -1631.5900    
  2567.5608       44.816936      -1616.6951    
  2573.5181       44.920921      -1601.7999    
  2593.3250       45.266655      -1607.3717    
  2613.1318       45.612389      -1612.9432    
  2632.9390       45.958118      -1618.5150    
  2653.1792       46.311413      -1624.6283    
  2673.4194       46.664711      -1630.7417    
  2693.6597       47.018005      -1636.8550    
  2713.8999       47.371300      -1643.1350    
  2734.1401       47.724594      -1649.4150    
  2754.3804       48.077888      -1655.6949    
  2774.3474       48.426411      -1661.1400    
  2794.3145       48.774940      -1666.5850    
  2814.2812       49.123463      -1672.0300    
  2522.6023       88.091209      -1704.9000    
  2533.2278       88.462257      -1685.4283    
  2543.8525       88.833298      -1665.9567    
  2554.4780       89.204330      -1646.4850    
  2560.4326       89.412277      -1631.5900    
  2566.3875       89.620216      -1616.6951    
  2572.3420       89.828163      -1601.7999    
  2592.1399       90.519516      -1607.3717    
  2611.9377       91.210876      -1612.9432    
  2631.7358       91.902237      -1618.5150    
  2651.9668       92.608719      -1624.6283    
  2672.1978       93.315208      -1630.7417    
  2692.4287       94.021690      -1636.8550    
  2712.6599       94.728165      -1643.1350    
  2732.8909       95.434654      -1649.4150    
  2753.1218       96.141136      -1655.6949    
  2773.0796       96.838081      -1661.1400    
  2793.0374       97.535011      -1666.5850    
  2812.9951       98.231956      -1672.0300    
  2520.6807       132.10329      -1704.9000    
  2531.2979       132.65970      -1685.4283    
  2541.9150       133.21611      -1665.9567    
  2552.5322       133.77254      -1646.4850    
  2558.4822       134.08438      -1631.5900    
  2564.4324       134.39621      -1616.6951    
  2570.3826       134.70805      -1601.7999    
  2590.1653       135.74483      -1607.3717    
  2609.9482       136.78159      -1612.9432    
  2629.7310       137.81836      -1618.5150    
  2649.9468       138.87782      -1624.6283    
  2670.1621       139.93729      -1630.7417    
  2690.3779       140.99673      -1636.8550    
  2710.5935       142.05618      -1643.1350    
  2730.8091       143.11565      -1649.4150    
  2751.0247       144.17509      -1655.6949    
  2770.9673       145.22025      -1661.1400    
  2790.9097       146.26538      -1666.5850    
  2810.8525       147.31055      -1672.0300    
  2517.9912       176.07510      -1704.9000    
  2528.5972       176.81673      -1685.4283    
  2539.2026       177.55835      -1665.9567    
  2549.8088       178.29999      -1646.4850    
  2555.7524       178.71562      -1631.5900    
  2561.6963       179.13126      -1616.6951    
  2567.6401       179.54688      -1601.7999    
  2587.4019       180.92876      -1607.3717    
  2607.1633       182.31062      -1612.9432    
  2626.9253       183.69250      -1618.5150    
  2647.1194       185.10461      -1624.6283    
  2667.3132       186.51672      -1630.7417    
  2687.5073       187.92883      -1636.8550    
  2707.7014       189.34091      -1643.1350    
  2727.8955       190.75302      -1649.4150    
  2748.0896       192.16513      -1655.6949    
  2768.0107       193.55817      -1661.1400    
  2787.9321       194.95120      -1666.5850    
  2807.8535       196.34424      -1672.0300    
  2514.5347       219.99327      -1704.9000    
  2525.1262       220.91991      -1685.4283    
  2535.7173       221.84651      -1665.9567    
  2546.3086       222.77312      -1646.4850    
  2552.2441       223.29242      -1631.5900    
  2558.1799       223.81174      -1616.6951    
  2564.1155       224.33104      -1601.7999    
  2583.8501       226.05759      -1607.3717    
  2603.5847       227.78415      -1612.9432    
  2623.3191       229.51068      -1618.5150    
  2643.4856       231.27502      -1624.6283    
  2663.6519       233.03935      -1630.7417    
  2683.8184       234.80368      -1636.8550    
  2703.9846       236.56799      -1643.1350    
  2724.1509       238.33232      -1649.4150    
  2744.3174       240.09665      -1655.6949    
  2764.2112       241.83713      -1661.1400    
  2784.1050       243.57764      -1666.5850    
  2803.9993       245.31813      -1672.0300    
 
CELLS        360       1440
          3          0          1         19
          3          1         20         19
          3         19         20         39
          3         19         39         38
          3          1          2         20
          3          2         21         20
          3         20         21         40
          3         20         40         39
          3          2          3         21
          3          3         22         21
          3         21         22         41
          3         21         41         40
          3          3          4         22
          3          4         23         22
          3         22         23         42
          3         22         42         41
          3          4          5         23
          3          5         24         23
          3         23         24         43
          3         23         43         42
          3          5          6         24
          3          6         25         24
          3         24         25         44
          3         24         44         43
          3          6          7         25
          3          7         26         25
          3         25         26         45
          3         25         45         44
          3          7          8         26
          3          8         27         26
          3         26         27         46
          3         26         46         45
          3          8          9         27
          3          9         28         27
          3         27         28         47
          3         27         47         46
          3          9         10         28
          3         10         29         28
          3         28         29         48
          3         28         48         47
          3         10         11         29
          3         11         30         29
          3         29         30         49
          3         29         49         48
          3         11         12         30
          3         12         31         30
          3         30         31         50
          3         30         50         49
          3         12         13         31
          3         13         32         31
          3         31         32         51
          3         31         51         50
          3         13         14         32
          3         14         33         32
          3         32         33         52
          3         32         52         51
          3         14         15         33
          3         15         34         33
          3         33         34         53
          3         33         53         52
          3         15         16         34
          3         16         35         34
          3         34         35         54
          3         34         54         53
          3         16         17         35
          3         17         36         35
          3         35         36         55
          3         35         55         54
          3         17         18         36
          3         18         37         36
          3         36         37         56
          3         36         56         55
          3         38         39         57
          3         39         58         57
          3         57         58         77
          3         57         77         76
          3         39         40         58
          3         40         59         58
          3         58         59         78
          3         58         78         77
          3         40         41         59
          3         41         60         59
          3         59         60         79
          3         59         79         78
          3         41         42         60
          3         42         61         60
          3         60         61         80
          3         60         80         79
          3         42         43         61
          3         43         62         61
          3         61         62         81
          3         61         81         80
          3         43         44         62
          3         44         63         62
          3         62         63         82
          3         62         82         81
          3         44         45         63
          3         45         64         63
          3         63         64         83
          3         63         83         82
          3         45         46         64
          3         46         65         64
          3         64         65         84
          3         64         84         83
          3         46         47         65
          3         47         66         65
          3         65         66         85
          3         65         85         84
          3         47         48         66
          3         48         67         66
          3         66         67         86
          3         66         86         85
          3         48         49         67
          3         49         68         67
          3         67         68         87
          3         67         87         86
          3         49         50         68
          3         50         69         68
          3         68         69         88
          3         68         88         87
          3         50         51         69
          3         51         70         69
          3         69         70         89
          3         69         89         88
          3         51         52         70
          3         52         71         70
          3         70         71         90
          3         70         90         89
          3         52         53         71
          3         53         72         71
          3         71         72         91
          3         71         91         90
          3         53         54         72
          3         54         73         72
          3         72         73         92
          3         72         92         91
          3         54         55         73
          3         55         74         73
          3         73         74         93
          3         73         93         92
          3         55         56         74
          3         56         75         74
          3         74         75         94
          3         74         94         93
          3         76         77         95
          3         77         96         95
          3         95         96        115
          3         95        115        114
          3         77         78         96
          3         78         97         96
          3         96         97        116
          3         96        116        115
          3         78         79         97
          3         79         98         97
          3         97         98        117
          3         97        117        116
          3         79         80         98
          3         80         99         98
          3         98         99        118
          3         98        118        117
          3         80         81         99
          3         81        100         99
          3         99        100        119
          3         99        119        118
          3         81         82        100
          3         82        101        100
          3        100        101        120
          3        100        120        119
          3         82         83        101
          3         83        102        101
          3        101        102        121
          3        101        121        120
          3         83         84        102
          3         84        103        102
          3        102        103        122
          3        102        122        121
          3         84         85        103
          3         85        104        103
          3        103        104        123
          3        103        123        122
          3         85         86        104
          3         86        105        104
          3        104        105        124
          3        104        124        123
          3         86         87        105
          3         87        106        105
          3        105        106        125
          3        105        125        124
          3         87         88        106
          3         88        107        106
          3        106        107        126
          3        106        126        125
          3         88         89        107
          3         89        108        107
          3        107        108        127
          3        107        127        126
          3         89         90        108
          3         90        109        108
          3        108        109        128
          3        108        128        127
          3         90         91        109
          3         91        110        109
          3        109        110        129
          3        109        129        128
          3         91         92        110
          3         92        111        110
          3        110        111        130
          3        110        130        129
          3         92         93        111
          3         93        112        111
          3        111        112        131
          3        111        131        130
          3         93         94        112
          3         94        113        112
          3        112        113        132
          3        112        132        131
          3        114        115        133
          3        115        134        133
          3        133        134        153
          3        133        153        152
          3        115        116        134
          3        116        135        134
          3        134        135        154
          3        134        154        153
          3        116        117        135
          3        117        136        135
          3        135        136        155
          3        135        155        154
          3        117        118        136
          3        118        137        136
          3        136        137        156
          3        136        156        155
          3        118        119        137
          3        119        138        137
          3        137        138        157
          3        137        157        156
          3        119        120        138
          3        120        139        138
          3        138        139        158
          3        138        158        157
          3        120        121        139
          3        121        140        139
          3        139        140        159
          3        139        159        158
          3        121        122        140
          3        122        141        140
          3        140        141        160
          3        140        160        159
          3        122        123        141
          3        123        142        141
          3        141        142        161
          3        141        161        160
          3        123        124        142
          3        124        143        142
          3        142        143        162
          3        142        162        161
          3        124        125        143
          3        125        144        143
          3        143        144        163
          3        143        163        162
          3        125        126        144
          3        126        145        144
          3        144        145        164
          3        144        164        163
          3        126        127        145
          3        127        146        145
          3        145        146        165
          3        145        165        164
          3        127        128        146
          3        128        147        146
          3        146        147        166
          3        146        166        165
          3        128        129        147
          3        129        148        147
          3        147        148        167
          3        147        167        166
          3        129        130        148
          3        130        149        148
          3        148        149        168
          3        148        168        167
          3        130        131        149
          3        131        150        149
          3        149        150        169
          3        149        169        168
          3        131        132        150
          3        132        151        150
          3        150        151        170
          3        150        170        169
          3        152        153        171
          3        153        172        171
          3        171        172        191
          3        171        191        190
          3        153        154        172
          3        154        173        172
          3        172        173        192
          3        172        192        191
          3        154        155        173
          3        155        174        173
          3        173        174        193
          3        173        193        192
          3        155        156        174
          3        156        175        174
          3        174        175        194
          3        174        194        193
          3        156        157        175
          3        157        176        175
          3        175        176        195
          3        175        195        194
          3        157        158        176
          3        158        177        176
          3        176        177        196
          3        176        196        195
          3        158        159        177
          3        159        178        177
          3        177        178        197
          3        177        197        196
          3        159        160        178
          3        160        179        178
          3        178        179        198
          3        178        198        197
          3        160        161        179
          3        161        180        179
          3        179        180        199
          3        179        199        198
          3        161        162        180
          3        162        181        180
          3        180        181        200
          3        180        200        199
          3        162        163        181
          3        163        182        181
          3        181        182        201
          3        181        201        200
          3        163        164        182
          3        164        183        182
          3        182        183        202
          3        182        202        201
          3        164        165        183
          3        165        184        183
          3        183        184        203
          3        183        203        202
          3        165        166        184
          3        166        185        184
          3        184        185        204
          3        184        204        203
          3        166        167        185
          3        167        186        185
          3        185        186        205
          3        185        205        204
          3        167        168        186
          3        168        187        186
          3        186        187        206
          3        186        206        205
          3        168        169        187
          3        169        188        187
          3        187        188        207
          3        187        207        206
          3        169        170        188
          3        170        189        188
          3        188        189        208
          3        188        208        207
 
CELL_TYPES        360
          5
          5
          5
          5
          5
          5
          5
          5
          5
          5
          5
          5
          5
          5
          5
          5
          5
          5
          5
          5
          5
          5
          5
          5
          5
          5
          5
          5
          5
          5
          5
          5
          5
          5
          5
          5
          5
          5
          5
          5
          5
          5
          5
          5
          5
          5
          5
          5
          5
          5
          5
          5
          5
          5
          5
          5
          5
          5
          5
          5
          5
          5
          5
          5
          5
          5
          5
          5
          5
          5
          5
          5
          5
          5
          5
          5
          5
          5
          5
          5
          5
          5
          5
          5
          5
          5
          5
          5
          5
          5
          5
          5
          5
          5
          5
          5
          5
          5
          5
          5
          5
          5
          5
          5
          5
          5
          5
          5
          5
          5
          5
          5
          5
          5
          5
          5
          5
          5
          5
          5
          5
          5
          5
          5
          5
          5
          5
          5
          5
          5
          5
          5
          5
          5
          5
          5
          5
          5
          5
          5
          5
          5
          5
          5
          5
          5
          5
          5
          5
          5
          5
          5
          5
          5
          5
          5
          5
          5
          5
          5
          5
          5
          5
          5
          5
          5
          5
          5
          5
          5
          5
          5
          5
          5
          5
          5
          5
          5
          5
          5
          5
          5
          5
          5
          5
          5
          5
          5
          5
          5
          5
          5
          5
          5
          5
          5
          5
          5
          5
          5
          5
          5
          5
          5
          5
          5
          5
          5
          5
          5
          5
          5
          5
          5
          5
          5
          5
          5
          5
          5
          5
          5
          5
          5
          5
          5
          5
          5
          5
          5
          5
          5
          5
          5
          5
          5
          5
          5
          5
          5
          5
          5
          5
          5
          5
          5
          5
          5
          5
          5
          5
          5
          5
          5
          5
          5
          5
          5
          5
          5
          5
          5
          5
          5
          5
          5
          5
          5
          5
          5
          5
          5
          5
          5
          5
          5
          5
          5
          5
          5
          5
          5
          5
          5
          5
          5
          5
          5
          5
          5
          5
          5
          5
          5
          5
          5
          5
          5
          5
          5
          5
          5
          5
          5
          5
          5
          5
          5
          5
          5
          5
          5
          5
          5
          5
          5
          5
          5
          5
          5
          5
          5
          5
          5
          5
          5
          5
          5
          5
          5
          5
          5
          5
          5
          5
          5
          5
          5
          5
          5
          5
          5
          5
          5
          5
          5
          5
          5
          5
          5
          5
          5
          5
          5
          5
          5
          5
          5
          5
          5
CELL_DATA       360
SCALARS Q-avg float 1
LOOKUP_TABLE default
  24286.748    
  25370.188    
  25380.506    
  24294.104    
  27115.168    
  28352.521    
  28354.078    
  27118.355    
  30824.598    
  32507.082    
  32496.916    
  30845.059    
  109993.30    
  110206.05    
  110264.38    
  110058.96    
  111083.50    
  111974.02    
  112068.70    
  111180.34    
  113116.97    
  113957.48    
  114112.38    
  113284.59    
  66149.875    
  70410.750    
  70351.242    
  66161.141    
  80177.148    
  86385.883    
  86243.773    
  79984.680    
  102089.30    
  112414.57    
  112119.91    
  101957.93    
  239069.12    
  254517.34    
  254583.14    
  239350.17    
  285846.47    
  300065.84    
  300175.28    
  285017.75    
  326568.66    
  338612.69    
  338692.88    
  326833.69    
  386831.41    
  394599.06    
  394312.38    
  386564.62    
  407827.00    
  413571.56    
  413342.81    
  407621.22    
  423035.62    
  426885.69    
  426709.88    
  422852.59    
  352325.22    
  361839.62    
  361893.62    
  352413.50    
  378893.16    
  386467.12    
  386499.78    
  378956.06    
  399908.44    
  405787.28    
  405801.47    
  399949.66    
  24497.754    
  25357.754    
  25388.256    
  24291.508    
  27095.518    
  28343.018    
  28380.932    
  27128.893    
  30822.746    
  32493.127    
  32355.486    
  30859.371    
  110019.44    
  110221.29    
  109900.46    
  110263.34    
  111276.42    
  112170.97    
  112052.17    
  111116.34    
  113315.06    
  113960.27    
  114198.78    
  113384.87    
  66279.156    
  70545.914    
  70498.695    
  66236.438    
  80237.742    
  86507.438    
  86587.039    
  80315.969    
  102186.73    
  112508.02    
  112299.77    
  102002.85    
  239294.48    
  254460.00    
  254287.88    
  238816.80    
  286012.16    
  300371.59    
  299923.94    
  284762.94    
  326792.12    
  338613.03    
  338466.16    
  326381.09    
  386659.97    
  394381.31    
  394310.34    
  386567.12    
  407707.62    
  413406.31    
  413335.91    
  407626.12    
  422928.47    
  426766.94    
  426699.72    
  422846.00    
  352388.19    
  361790.62    
  361882.34    
  352301.94    
  378953.22    
  386408.50    
  386502.53    
  378909.78    
  399918.28    
  405743.59    
  405811.00    
  399918.41    
  24327.895    
  25412.746    
  25412.824    
  24327.930    
  27148.846    
  28390.828    
  28390.883    
  27148.885    
  30881.613    
  32392.396    
  32392.445    
  30881.674    
  109832.24    
  110194.91    
  110194.91    
  109832.24    
  111154.16    
  111950.34    
  111950.27    
  111154.16    
  113106.16    
  113921.96    
  113921.96    
  113106.30    
  66174.023    
  70448.414    
  70448.344    
  66174.008    
  80188.844    
  86351.828    
  86351.758    
  80188.891    
  102066.17    
  112372.91    
  112373.52    
  102066.11    
  238995.03    
  254476.12    
  254475.66    
  238995.14    
  284926.75    
  300078.12    
  300078.12    
  284927.53    
  326528.31    
  338607.12    
  338607.09    
  326528.31    
  386730.91    
  394460.84    
  394460.88    
  386730.81    
  407742.53    
  413450.34    
  413450.50    
  407742.44    
  422936.09    
  426781.94    
  426781.81    
  422936.09    
  352511.19    
  362032.47    
  362032.69    
  352511.03    
  379028.59    
  386609.19    
  386609.16    
  379028.75    
  400012.25    
  405889.00    
  405888.94    
  400012.25    
  24291.506    
  25388.254    
  25357.756    
  24497.760    
  27128.848    
  28380.934    
  28343.016    
  27095.514    
  30859.371    
  32355.484    
  32493.135    
  30822.744    
  110263.18    
  109900.41    
  110221.27    
  110019.48    
  111116.23    
  112052.20    
  112170.79    
  111276.27    
  113384.76    
  114198.73    
  113960.29    
  113305.52    
  66236.438    
  70498.695    
  70545.891    
  66279.195    
  80315.938    
  86586.664    
  86507.672    
  80237.734    
  102003.01    
  112299.49    
  112508.37    
  102186.73    
  238816.80    
  254287.84    
  254459.81    
  239294.66    
  284762.97    
  299923.94    
  300371.75    
  286012.31    
  326381.09    
  338466.09    
  338613.25    
  326792.34    
  386567.09    
  394310.06    
  394381.44    
  386659.91    
  407626.25    
  413335.81    
  413406.25    
  407707.59    
  422845.81    
  426699.62    
  426766.97    
  422928.50    
  352301.94    
  361882.28    
  361790.25    
  352387.88    
  378910.31    
  386502.50    
  386408.53    
  378953.22    
  399918.41    
  405811.03    
  405743.59    
  399918.19    
  24294.104    
  25380.510    
  25370.201    
  24286.736    
  27118.355    
  28354.074    
  28352.525    
  27115.041    
  30845.062    
  32496.785    
  32507.117    
  30824.619    
  110058.96    
  110264.54    
  110206.05    
  109993.35    
  111180.40    
  112068.73    
  111973.90    
  111083.44    
  113284.71    
  114112.36    
  113957.53    
  113117.04    
  66161.148    
  70351.406    
  70410.719    
  66149.797    
  79984.602    
  86243.664    
  86386.164    
  80177.102    
  101945.20    
  112120.08    
  112414.83    
  102089.29    
  239350.14    
  254583.02    
  254570.50    
  239069.00    
  285018.12    
  300175.22    
  300066.25    
  285846.66    
  326833.66    
  338692.81    
  338612.62    
  326568.66    
  386564.91    
  394312.22    
  394599.28    
  386831.84    
  407620.94    
  413342.97    
  413571.34    
  407827.06    
  422852.72    
  426709.91    
  426885.78    
  423035.56    
  352414.16    
  361892.91    
  361839.62    
  352324.75    
  378955.94    
  386500.09    
  386467.12    
  378893.41    
  399949.56    
  405801.47    
  405787.38    
  399908.56    
