# vtk DataFile Version 4.2
Mesh___Parameters=  2  11  11
ASCII
 
DATASET UNSTRUCTURED_GRID
POINTS 56 float
0.309017 0 0.951057 0.259962 0.167067 0.951057 0 0 1 
0.12837 0.281092 0.951057 -0.0439777 0.305872 0.951057 -0.202363 0.233539 0.951057 
-0.2965 0.0870601 0.951057 -0.2965 -0.0870601 0.951057 -0.202363 -0.233539 0.951057 
-0.0439777 -0.305872 0.951057 0.12837 -0.281092 0.951057 0.259962 -0.167067 0.951057 
0.587785 0 0.809017 0.494476 0.317781 0.809017 0.809017 0 0.587785 
0.680588 0.437388 0.587785 0.951057 0 0.309017 0.80008 0.51418 0.309017 
1 0 6.12323e-17 0.841254 0.540641 6.12323e-17 0.244175 0.534668 0.809017 
0.336078 0.735908 0.587785 0.395083 0.865111 0.309017 0.415415 0.909632 6.12323e-17 
-0.0836506 0.581802 0.809017 -0.115135 0.800782 0.587785 -0.135349 0.941376 0.309017 
-0.142315 0.989821 6.12323e-17 -0.384917 0.444218 0.809017 -0.529793 0.611414 0.587785 
-0.62281 0.718761 0.309017 -0.654861 0.75575 6.12323e-17 -0.563976 0.165598 0.809017 
-0.776246 0.227926 0.587785 -0.912532 0.267944 0.309017 -0.959493 0.281733 6.12323e-17 
-0.563976 -0.165598 0.809017 -0.776246 -0.227926 0.587785 -0.912532 -0.267944 0.309017 
-0.959493 -0.281733 6.12323e-17 -0.384917 -0.444218 0.809017 -0.529793 -0.611414 0.587785 
-0.62281 -0.718761 0.309017 -0.654861 -0.75575 6.12323e-17 -0.0836506 -0.581802 0.809017 
-0.115135 -0.800782 0.587785 -0.135349 -0.941376 0.309017 -0.142315 -0.989821 6.12323e-17 
0.244175 -0.534668 0.809017 0.336078 -0.735908 0.587785 0.395083 -0.865111 0.309017 
0.415415 -0.909632 6.12323e-17 0.494476 -0.317781 0.809017 0.680588 -0.437388 0.587785 
0.80008 -0.51418 0.309017 0.841254 -0.540641 6.12323e-17 

CELLS 99 396
3 0 1 2 
3 1 3 2 
3 3 4 2 
3 4 5 2 
3 5 6 2 
3 6 7 2 
3 7 8 2 
3 8 9 2 
3 9 10 2 
3 10 11 2 
3 11 0 2 
3 0 12 13 
3 0 13 1 
3 12 14 15 
3 12 15 13 
3 14 16 17 
3 14 17 15 
3 16 18 19 
3 16 19 17 
3 1 13 20 
3 1 20 3 
3 13 15 21 
3 13 21 20 
3 15 17 22 
3 15 22 21 
3 17 19 23 
3 17 23 22 
3 3 20 24 
3 3 24 4 
3 20 21 25 
3 20 25 24 
3 21 22 26 
3 21 26 25 
3 22 23 27 
3 22 27 26 
3 4 24 28 
3 4 28 5 
3 24 25 29 
3 24 29 28 
3 25 26 30 
3 25 30 29 
3 26 27 31 
3 26 31 30 
3 5 28 32 
3 5 32 6 
3 28 29 33 
3 28 33 32 
3 29 30 34 
3 29 34 33 
3 30 31 35 
3 30 35 34 
3 6 32 36 
3 6 36 7 
3 32 33 37 
3 32 37 36 
3 33 34 38 
3 33 38 37 
3 34 35 39 
3 34 39 38 
3 7 36 40 
3 7 40 8 
3 36 37 41 
3 36 41 40 
3 37 38 42 
3 37 42 41 
3 38 39 43 
3 38 43 42 
3 8 40 44 
3 8 44 9 
3 40 41 45 
3 40 45 44 
3 41 42 46 
3 41 46 45 
3 42 43 47 
3 42 47 46 
3 9 44 48 
3 9 48 10 
3 44 45 49 
3 44 49 48 
3 45 46 50 
3 45 50 49 
3 46 47 51 
3 46 51 50 
3 10 48 52 
3 10 52 11 
3 48 49 53 
3 48 53 52 
3 49 50 54 
3 49 54 53 
3 50 51 55 
3 50 55 54 
3 11 52 12 
3 11 12 0 
3 52 53 14 
3 52 14 12 
3 53 54 16 
3 53 16 14 
3 54 55 18 
3 54 18 16 

CELL_TYPES 99
5
5
5
5
5
5
5
5
5
5
5
5
5
5
5
5
5
5
5
5
5
5
5
5
5
5
5
5
5
5
5
5
5
5
5
5
5
5
5
5
5
5
5
5
5
5
5
5
5
5
5
5
5
5
5
5
5
5
5
5
5
5
5
5
5
5
5
5
5
5
5
5
5
5
5
5
5
5
5
5
5
5
5
5
5
5
5
5
5
5
5
5
5
5
5
5
5
5
5

