# vtk DataFile Version 2.0
------------------------------ Number_Parameters=  6    1    1   -3    0    0    0                                                                                                                                                                              
ASCII
           
DATASET UNSTRUCTURED_GRID
POINTS         67 float
  0.0000000       0.0000000       0.0000000    
 -1.0000000      0.87422777E-07   0.0000000    
-0.95105654      0.83144009E-07  0.30901700    
-0.80901700      0.70726514E-07  0.58778524    
-0.58778524      0.51385822E-07  0.80901700    
-0.30901700      0.27015126E-07  0.95105654    
-0.18375893E-14  0.16064717E-21   1.0000000    
-0.80901706     -0.58778518       0.0000000    
-0.76942092     -0.55901694      0.30901700    
-0.65450853     -0.47552821      0.58778524    
-0.47552827     -0.34549147      0.80901700    
-0.25000003     -0.18163562      0.95105654    
-0.14866411E-14 -0.10801077E-14   1.0000000    
-0.30901694     -0.95105654       0.0000000    
-0.29389256     -0.90450853      0.30901700    
-0.24999996     -0.76942092      0.58778524    
-0.18163559     -0.55901700      0.80901700    
-0.95491484E-01 -0.29389265      0.95105654    
-0.56784618E-15 -0.17476513E-14   1.0000000    
 0.30901697     -0.95105654       0.0000000    
 0.29389259     -0.90450853      0.30901700    
 0.24999997     -0.76942092      0.58778524    
 0.18163560     -0.55901700      0.80901700    
 0.95491499E-01 -0.29389265      0.95105654    
 0.56784623E-15 -0.17476513E-14   1.0000000    
 0.80901700     -0.58778524       0.0000000    
 0.76942092     -0.55901700      0.30901700    
 0.65450847     -0.47552827      0.58778524    
 0.47552824     -0.34549150      0.80901700    
 0.25000000     -0.18163565      0.95105654    
 0.14866410E-14 -0.10801079E-14   1.0000000    
  1.0000000      -0.0000000       0.0000000    
 0.95105654      -0.0000000      0.30901700    
 0.80901700      -0.0000000      0.58778524    
 0.58778524      -0.0000000      0.80901700    
 0.30901700      -0.0000000      0.95105654    
 0.18375893E-14  -0.0000000       1.0000000    
 0.80901700      0.58778524       0.0000000    
 0.76942092      0.55901700      0.30901700    
 0.65450847      0.47552827      0.58778524    
 0.47552824      0.34549150      0.80901700    
 0.25000000      0.18163565      0.95105654    
 0.14866410E-14  0.10801079E-14   1.0000000    
 0.30901697      0.95105654       0.0000000    
 0.29389259      0.90450853      0.30901700    
 0.24999997      0.76942092      0.58778524    
 0.18163560      0.55901700      0.80901700    
 0.95491499E-01  0.29389265      0.95105654    
 0.56784623E-15  0.17476513E-14   1.0000000    
-0.30901694      0.95105654       0.0000000    
-0.29389256      0.90450853      0.30901700    
-0.24999996      0.76942092      0.58778524    
-0.18163559      0.55901700      0.80901700    
-0.95491484E-01  0.29389265      0.95105654    
-0.56784618E-15  0.17476513E-14   1.0000000    
-0.80901706      0.58778518       0.0000000    
-0.76942092      0.55901694      0.30901700    
-0.65450853      0.47552821      0.58778524    
-0.47552827      0.34549147      0.80901700    
-0.25000003      0.18163562      0.95105654    
-0.14866411E-14  0.10801077E-14   1.0000000    
 -1.0000000     -0.87422777E-07   0.0000000    
-0.95105654     -0.83144009E-07  0.30901700    
-0.80901700     -0.70726514E-07  0.58778524    
-0.58778524     -0.51385822E-07  0.80901700    
-0.30901700     -0.27015126E-07  0.95105654    
-0.18375893E-14 -0.16064717E-21   1.0000000    
 
CELLS         51        252
          1          0
          4          1          2          8          7
          4          2          3          9          8
          4          3          4         10          9
          4          4          5         11         10
          4          5          6         12         11
          4          7          8         14         13
          4          8          9         15         14
          4          9         10         16         15
          4         10         11         17         16
          4         11         12         18         17
          4         13         14         20         19
          4         14         15         21         20
          4         15         16         22         21
          4         16         17         23         22
          4         17         18         24         23
          4         19         20         26         25
          4         20         21         27         26
          4         21         22         28         27
          4         22         23         29         28
          4         23         24         30         29
          4         25         26         32         31
          4         26         27         33         32
          4         27         28         34         33
          4         28         29         35         34
          4         29         30         36         35
          4         31         32         38         37
          4         32         33         39         38
          4         33         34         40         39
          4         34         35         41         40
          4         35         36         42         41
          4         37         38         44         43
          4         38         39         45         44
          4         39         40         46         45
          4         40         41         47         46
          4         41         42         48         47
          4         43         44         50         49
          4         44         45         51         50
          4         45         46         52         51
          4         46         47         53         52
          4         47         48         54         53
          4         49         50         56         55
          4         50         51         57         56
          4         51         52         58         57
          4         52         53         59         58
          4         53         54         60         59
          4         55         56         62         61
          4         56         57         63         62
          4         57         58         64         63
          4         58         59         65         64
          4         59         60         66         65
 
CELL_TYPES         51
          1
          9
          9
          9
          9
          9
          9
          9
          9
          9
          9
          9
          9
          9
          9
          9
          9
          9
          9
          9
          9
          9
          9
          9
          9
          9
          9
          9
          9
          9
          9
          9
          9
          9
          9
          9
          9
          9
          9
          9
          9
          9
          9
          9
          9
          9
          9
          9
          9
          9
          9
 
CELL_DATA         51
SCALARS Code int
LOOKUP_TABLE default
          0
          8
          8
          8
          8
          8
          8
          8
          8
          8
          8
          8
          8
          8
          8
          8
          8
          8
          8
          8
          8
          8
          8
          8
          8
          8
          8
          8
          8
          8
          8
          8
          8
          8
          8
          8
          8
          8
          8
          8
          8
          8
          8
          8
          8
          8
          8
          8
          8
          8
          8
SCALARS Body int 
LOOKUP_TABLE default
        1
        2
        2
        2
        2
        2
        2
        2
        2
        2
        2
        2
        2
        2
        2
        2
        2
        2
        2
        2
        2
        2
        2
        2
        2
        2
        2
        2
        2
        2
        2
        2
        2
        2
        2
        2
        2
        2
        2
        2
        2
        2
        2
        2
        2
        2
        2
        2
        2
        2
        2
