# vtk DataFile Version 4.2
Mesh___Parameters=  2  21  21
ASCII
 
DATASET UNSTRUCTURED_GRID
POINTS 211 float
0.156434 0 0.987688 0.149485 0.0461099 0.987688 0 0 1 
0.129252 0.0881227 0.987688 0.0975353 0.122305 0.987688 0.0571519 0.145621 0.987688 
0.0116904 0.155997 0.987688 -0.0348099 0.152512 0.987688 -0.0782172 0.135476 0.987688 
-0.114675 0.106402 0.987688 -0.140943 0.0678744 0.987688 -0.154687 0.0233153 0.987688 
-0.154687 -0.0233153 0.987688 -0.140943 -0.0678744 0.987688 -0.114675 -0.106402 0.987688 
-0.0782172 -0.135476 0.987688 -0.0348099 -0.152512 0.987688 0.0116904 -0.155997 0.987688 
0.0571519 -0.145621 0.987688 0.0975353 -0.122305 0.987688 0.129252 -0.0881227 0.987688 
0.149485 -0.0461099 0.987688 0.309017 0 0.951057 0.295288 0.0910844 0.951057 
0.45399 0 0.891007 0.433821 0.133816 0.891007 0.587785 0 0.809017 
0.561672 0.173253 0.809017 0.707107 0 0.707107 0.675692 0.208423 0.707107 
0.809017 0 0.587785 0.773075 0.238462 0.587785 0.891007 0 0.45399 
0.851422 0.262629 0.45399 0.951057 0 0.309017 0.908804 0.280329 0.309017 
0.987688 0 0.156434 0.943808 0.291126 0.156434 1 0 6.12323e-17 
0.955573 0.294755 6.12323e-17 0.255322 0.174075 0.951057 0.375105 0.255742 0.891007 
0.485651 0.331111 0.809017 0.584239 0.398327 0.707107 0.668441 0.455736 0.587785 
0.736184 0.501922 0.45399 0.7858 0.535749 0.309017 0.816066 0.556385 0.156434 
0.826239 0.56332 6.12323e-17 0.192669 0.241599 0.951057 0.283058 0.354944 0.891007 
0.366478 0.459549 0.809017 0.440874 0.552838 0.707107 0.504414 0.632515 0.587785 
0.555533 0.696617 0.45399 0.592974 0.743566 0.309017 0.615814 0.772206 0.156434 
0.62349 0.781832 6.12323e-17 0.112897 0.287656 0.951057 0.165861 0.422608 0.891007 
0.214742 0.547154 0.809017 0.258335 0.658227 0.707107 0.295567 0.753093 0.587785 
0.325521 0.829415 0.45399 0.34746 0.885314 0.309017 0.360843 0.919413 0.156434 
0.365341 0.930874 6.12323e-17 0.0230929 0.308153 0.951057 0.0339268 0.452721 0.891007 
0.0439252 0.586142 0.809017 0.0528422 0.70513 0.707107 0.0604579 0.806755 0.587785 
0.066585 0.888515 0.45399 0.0710725 0.948397 0.309017 0.07381 0.984927 0.156434 
0.0747301 0.997204 6.12323e-17 -0.0687627 0.301269 0.951057 -0.101022 0.442608 0.891007 
-0.130795 0.573048 0.809017 -0.157346 0.689378 0.707107 -0.180023 0.788733 0.587785 
-0.198268 0.868667 0.45399 -0.21163 0.927212 0.309017 -0.219781 0.962925 0.156434 
-0.222521 0.974928 6.12323e-17 -0.154509 0.267617 0.951057 -0.226995 0.393167 0.891007 
-0.293893 0.509037 0.809017 -0.353553 0.612372 0.707107 -0.404509 0.700629 0.587785 
-0.445503 0.771634 0.45399 -0.475528 0.823639 0.309017 -0.493844 0.855363 0.156434 
-0.5 0.866025 6.12323e-17 -0.226525 0.210185 0.951057 -0.332799 0.308792 0.891007 
-0.430877 0.399796 0.809017 -0.518346 0.480955 0.707107 -0.593051 0.550271 0.587785 
-0.653154 0.606038 0.45399 -0.697174 0.646883 0.309017 -0.724027 0.671799 0.156434 
-0.733052 0.680173 6.12323e-17 -0.278415 0.134077 0.951057 -0.409031 0.196979 0.891007 
-0.529576 0.25503 0.809017 -0.637081 0.306802 0.707107 -0.728899 0.351019 0.587785 
-0.802769 0.386593 0.45399 -0.856872 0.412648 0.309017 -0.889876 0.428542 0.156434 
-0.900969 0.433884 6.12323e-17 -0.305566 0.0460566 0.951057 -0.44892 0.0676638 0.891007 
-0.58122 0.0876048 0.809017 -0.699209 0.105389 0.707107 -0.799981 0.120578 0.587785 
-0.881055 0.132798 0.45399 -0.940434 0.141748 0.309017 -0.976657 0.147207 0.156434 
-0.988831 0.149042 6.12323e-17 -0.305566 -0.0460566 0.951057 -0.44892 -0.0676638 0.891007 
-0.58122 -0.0876048 0.809017 -0.699209 -0.105389 0.707107 -0.799981 -0.120578 0.587785 
-0.881055 -0.132798 0.45399 -0.940434 -0.141748 0.309017 -0.976657 -0.147207 0.156434 
-0.988831 -0.149042 6.12323e-17 -0.278415 -0.134077 0.951057 -0.409031 -0.196979 0.891007 
-0.529576 -0.25503 0.809017 -0.637081 -0.306802 0.707107 -0.728899 -0.351019 0.587785 
-0.802769 -0.386593 0.45399 -0.856872 -0.412648 0.309017 -0.889876 -0.428542 0.156434 
-0.900969 -0.433884 6.12323e-17 -0.226525 -0.210185 0.951057 -0.332799 -0.308792 0.891007 
-0.430877 -0.399796 0.809017 -0.518346 -0.480955 0.707107 -0.593051 -0.550271 0.587785 
-0.653154 -0.606038 0.45399 -0.697174 -0.646883 0.309017 -0.724027 -0.671799 0.156434 
-0.733052 -0.680173 6.12323e-17 -0.154509 -0.267617 0.951057 -0.226995 -0.393167 0.891007 
-0.293893 -0.509037 0.809017 -0.353553 -0.612372 0.707107 -0.404509 -0.700629 0.587785 
-0.445503 -0.771634 0.45399 -0.475528 -0.823639 0.309017 -0.493844 -0.855363 0.156434 
-0.5 -0.866025 6.12323e-17 -0.0687627 -0.301269 0.951057 -0.101022 -0.442608 0.891007 
-0.130795 -0.573048 0.809017 -0.157346 -0.689378 0.707107 -0.180023 -0.788733 0.587785 
-0.198268 -0.868667 0.45399 -0.21163 -0.927212 0.309017 -0.219781 -0.962925 0.156434 
-0.222521 -0.974928 6.12323e-17 0.0230929 -0.308153 0.951057 0.0339268 -0.452721 0.891007 
0.0439252 -0.586142 0.809017 0.0528422 -0.70513 0.707107 0.0604579 -0.806755 0.587785 
0.066585 -0.888515 0.45399 0.0710725 -0.948397 0.309017 0.07381 -0.984927 0.156434 
0.0747301 -0.997204 6.12323e-17 0.112897 -0.287656 0.951057 0.165861 -0.422608 0.891007 
0.214742 -0.547154 0.809017 0.258335 -0.658227 0.707107 0.295567 -0.753093 0.587785 
0.325521 -0.829415 0.45399 0.34746 -0.885314 0.309017 0.360843 -0.919413 0.156434 
0.365341 -0.930874 6.12323e-17 0.192669 -0.241599 0.951057 0.283058 -0.354944 0.891007 
0.366478 -0.459549 0.809017 0.440874 -0.552838 0.707107 0.504414 -0.632515 0.587785 
0.555533 -0.696617 0.45399 0.592974 -0.743566 0.309017 0.615814 -0.772206 0.156434 
0.62349 -0.781832 6.12323e-17 0.255322 -0.174075 0.951057 0.375105 -0.255742 0.891007 
0.485651 -0.331111 0.809017 0.584239 -0.398327 0.707107 0.668441 -0.455736 0.587785 
0.736184 -0.501922 0.45399 0.7858 -0.535749 0.309017 0.816066 -0.556385 0.156434 
0.826239 -0.56332 6.12323e-17 0.295288 -0.0910844 0.951057 0.433821 -0.133816 0.891007 
0.561672 -0.173253 0.809017 0.675692 -0.208423 0.707107 0.773075 -0.238462 0.587785 
0.851422 -0.262629 0.45399 0.908804 -0.280329 0.309017 0.943808 -0.291126 0.156434 
0.955573 -0.294755 6.12323e-17 

CELLS 399 1596
3 0 1 2 
3 1 3 2 
3 3 4 2 
3 4 5 2 
3 5 6 2 
3 6 7 2 
3 7 8 2 
3 8 9 2 
3 9 10 2 
3 10 11 2 
3 11 12 2 
3 12 13 2 
3 13 14 2 
3 14 15 2 
3 15 16 2 
3 16 17 2 
3 17 18 2 
3 18 19 2 
3 19 20 2 
3 20 21 2 
3 21 0 2 
3 0 22 23 
3 0 23 1 
3 22 24 25 
3 22 25 23 
3 24 26 27 
3 24 27 25 
3 26 28 29 
3 26 29 27 
3 28 30 31 
3 28 31 29 
3 30 32 33 
3 30 33 31 
3 32 34 35 
3 32 35 33 
3 34 36 37 
3 34 37 35 
3 36 38 39 
3 36 39 37 
3 1 23 40 
3 1 40 3 
3 23 25 41 
3 23 41 40 
3 25 27 42 
3 25 42 41 
3 27 29 43 
3 27 43 42 
3 29 31 44 
3 29 44 43 
3 31 33 45 
3 31 45 44 
3 33 35 46 
3 33 46 45 
3 35 37 47 
3 35 47 46 
3 37 39 48 
3 37 48 47 
3 3 40 49 
3 3 49 4 
3 40 41 50 
3 40 50 49 
3 41 42 51 
3 41 51 50 
3 42 43 52 
3 42 52 51 
3 43 44 53 
3 43 53 52 
3 44 45 54 
3 44 54 53 
3 45 46 55 
3 45 55 54 
3 46 47 56 
3 46 56 55 
3 47 48 57 
3 47 57 56 
3 4 49 58 
3 4 58 5 
3 49 50 59 
3 49 59 58 
3 50 51 60 
3 50 60 59 
3 51 52 61 
3 51 61 60 
3 52 53 62 
3 52 62 61 
3 53 54 63 
3 53 63 62 
3 54 55 64 
3 54 64 63 
3 55 56 65 
3 55 65 64 
3 56 57 66 
3 56 66 65 
3 5 58 67 
3 5 67 6 
3 58 59 68 
3 58 68 67 
3 59 60 69 
3 59 69 68 
3 60 61 70 
3 60 70 69 
3 61 62 71 
3 61 71 70 
3 62 63 72 
3 62 72 71 
3 63 64 73 
3 63 73 72 
3 64 65 74 
3 64 74 73 
3 65 66 75 
3 65 75 74 
3 6 67 76 
3 6 76 7 
3 67 68 77 
3 67 77 76 
3 68 69 78 
3 68 78 77 
3 69 70 79 
3 69 79 78 
3 70 71 80 
3 70 80 79 
3 71 72 81 
3 71 81 80 
3 72 73 82 
3 72 82 81 
3 73 74 83 
3 73 83 82 
3 74 75 84 
3 74 84 83 
3 7 76 85 
3 7 85 8 
3 76 77 86 
3 76 86 85 
3 77 78 87 
3 77 87 86 
3 78 79 88 
3 78 88 87 
3 79 80 89 
3 79 89 88 
3 80 81 90 
3 80 90 89 
3 81 82 91 
3 81 91 90 
3 82 83 92 
3 82 92 91 
3 83 84 93 
3 83 93 92 
3 8 85 94 
3 8 94 9 
3 85 86 95 
3 85 95 94 
3 86 87 96 
3 86 96 95 
3 87 88 97 
3 87 97 96 
3 88 89 98 
3 88 98 97 
3 89 90 99 
3 89 99 98 
3 90 91 100 
3 90 100 99 
3 91 92 101 
3 91 101 100 
3 92 93 102 
3 92 102 101 
3 9 94 103 
3 9 103 10 
3 94 95 104 
3 94 104 103 
3 95 96 105 
3 95 105 104 
3 96 97 106 
3 96 106 105 
3 97 98 107 
3 97 107 106 
3 98 99 108 
3 98 108 107 
3 99 100 109 
3 99 109 108 
3 100 101 110 
3 100 110 109 
3 101 102 111 
3 101 111 110 
3 10 103 112 
3 10 112 11 
3 103 104 113 
3 103 113 112 
3 104 105 114 
3 104 114 113 
3 105 106 115 
3 105 115 114 
3 106 107 116 
3 106 116 115 
3 107 108 117 
3 107 117 116 
3 108 109 118 
3 108 118 117 
3 109 110 119 
3 109 119 118 
3 110 111 120 
3 110 120 119 
3 11 112 121 
3 11 121 12 
3 112 113 122 
3 112 122 121 
3 113 114 123 
3 113 123 122 
3 114 115 124 
3 114 124 123 
3 115 116 125 
3 115 125 124 
3 116 117 126 
3 116 126 125 
3 117 118 127 
3 117 127 126 
3 118 119 128 
3 118 128 127 
3 119 120 129 
3 119 129 128 
3 12 121 130 
3 12 130 13 
3 121 122 131 
3 121 131 130 
3 122 123 132 
3 122 132 131 
3 123 124 133 
3 123 133 132 
3 124 125 134 
3 124 134 133 
3 125 126 135 
3 125 135 134 
3 126 127 136 
3 126 136 135 
3 127 128 137 
3 127 137 136 
3 128 129 138 
3 128 138 137 
3 13 130 139 
3 13 139 14 
3 130 131 140 
3 130 140 139 
3 131 132 141 
3 131 141 140 
3 132 133 142 
3 132 142 141 
3 133 134 143 
3 133 143 142 
3 134 135 144 
3 134 144 143 
3 135 136 145 
3 135 145 144 
3 136 137 146 
3 136 146 145 
3 137 138 147 
3 137 147 146 
3 14 139 148 
3 14 148 15 
3 139 140 149 
3 139 149 148 
3 140 141 150 
3 140 150 149 
3 141 142 151 
3 141 151 150 
3 142 143 152 
3 142 152 151 
3 143 144 153 
3 143 153 152 
3 144 145 154 
3 144 154 153 
3 145 146 155 
3 145 155 154 
3 146 147 156 
3 146 156 155 
3 15 148 157 
3 15 157 16 
3 148 149 158 
3 148 158 157 
3 149 150 159 
3 149 159 158 
3 150 151 160 
3 150 160 159 
3 151 152 161 
3 151 161 160 
3 152 153 162 
3 152 162 161 
3 153 154 163 
3 153 163 162 
3 154 155 164 
3 154 164 163 
3 155 156 165 
3 155 165 164 
3 16 157 166 
3 16 166 17 
3 157 158 167 
3 157 167 166 
3 158 159 168 
3 158 168 167 
3 159 160 169 
3 159 169 168 
3 160 161 170 
3 160 170 169 
3 161 162 171 
3 161 171 170 
3 162 163 172 
3 162 172 171 
3 163 164 173 
3 163 173 172 
3 164 165 174 
3 164 174 173 
3 17 166 175 
3 17 175 18 
3 166 167 176 
3 166 176 175 
3 167 168 177 
3 167 177 176 
3 168 169 178 
3 168 178 177 
3 169 170 179 
3 169 179 178 
3 170 171 180 
3 170 180 179 
3 171 172 181 
3 171 181 180 
3 172 173 182 
3 172 182 181 
3 173 174 183 
3 173 183 182 
3 18 175 184 
3 18 184 19 
3 175 176 185 
3 175 185 184 
3 176 177 186 
3 176 186 185 
3 177 178 187 
3 177 187 186 
3 178 179 188 
3 178 188 187 
3 179 180 189 
3 179 189 188 
3 180 181 190 
3 180 190 189 
3 181 182 191 
3 181 191 190 
3 182 183 192 
3 182 192 191 
3 19 184 193 
3 19 193 20 
3 184 185 194 
3 184 194 193 
3 185 186 195 
3 185 195 194 
3 186 187 196 
3 186 196 195 
3 187 188 197 
3 187 197 196 
3 188 189 198 
3 188 198 197 
3 189 190 199 
3 189 199 198 
3 190 191 200 
3 190 200 199 
3 191 192 201 
3 191 201 200 
3 20 193 202 
3 20 202 21 
3 193 194 203 
3 193 203 202 
3 194 195 204 
3 194 204 203 
3 195 196 205 
3 195 205 204 
3 196 197 206 
3 196 206 205 
3 197 198 207 
3 197 207 206 
3 198 199 208 
3 198 208 207 
3 199 200 209 
3 199 209 208 
3 200 201 210 
3 200 210 209 
3 21 202 22 
3 21 22 0 
3 202 203 24 
3 202 24 22 
3 203 204 26 
3 203 26 24 
3 204 205 28 
3 204 28 26 
3 205 206 30 
3 205 30 28 
3 206 207 32 
3 206 32 30 
3 207 208 34 
3 207 34 32 
3 208 209 36 
3 208 36 34 
3 209 210 38 
3 209 38 36 

CELL_TYPES 399
5
5
5
5
5
5
5
5
5
5
5
5
5
5
5
5
5
5
5
5
5
5
5
5
5
5
5
5
5
5
5
5
5
5
5
5
5
5
5
5
5
5
5
5
5
5
5
5
5
5
5
5
5
5
5
5
5
5
5
5
5
5
5
5
5
5
5
5
5
5
5
5
5
5
5
5
5
5
5
5
5
5
5
5
5
5
5
5
5
5
5
5
5
5
5
5
5
5
5
5
5
5
5
5
5
5
5
5
5
5
5
5
5
5
5
5
5
5
5
5
5
5
5
5
5
5
5
5
5
5
5
5
5
5
5
5
5
5
5
5
5
5
5
5
5
5
5
5
5
5
5
5
5
5
5
5
5
5
5
5
5
5
5
5
5
5
5
5
5
5
5
5
5
5
5
5
5
5
5
5
5
5
5
5
5
5
5
5
5
5
5
5
5
5
5
5
5
5
5
5
5
5
5
5
5
5
5
5
5
5
5
5
5
5
5
5
5
5
5
5
5
5
5
5
5
5
5
5
5
5
5
5
5
5
5
5
5
5
5
5
5
5
5
5
5
5
5
5
5
5
5
5
5
5
5
5
5
5
5
5
5
5
5
5
5
5
5
5
5
5
5
5
5
5
5
5
5
5
5
5
5
5
5
5
5
5
5
5
5
5
5
5
5
5
5
5
5
5
5
5
5
5
5
5
5
5
5
5
5
5
5
5
5
5
5
5
5
5
5
5
5
5
5
5
5
5
5
5
5
5
5
5
5
5
5
5
5
5
5
5
5
5
5
5
5
5
5
5
5
5
5
5
5
5
5
5
5
5
5
5
5
5
5
5
5
5
5
5
5
5
5
5
5
5
5
5
5
5
5
5
5
5
5
5
5
5
5
5
5
5
5
5
5
5
5
5
5
5
5

