# vtk DataFile Version 4.2
vtk output
ASCII
DATASET UNSTRUCTURED_GRID
POINTS 301 float
8284.6 -6.96491 1631.68 8284.65 -5.96612 1631.69 8284.7 -5.96305 1630.69 
8284.55 -7.9637 1631.68 8284.61 -7.5948 1630.86 8284.5 -8.96249 1631.67 
8284.57 -8.47898 1630.8 8284.45 -9.96128 1631.67 8284.52 -9.45957 1630.79 
8284.4 -10.9601 1631.66 8284.48 -10.4483 1630.76 8284.35 -11.9589 1631.65 
8284.43 -11.4427 1630.76 8284.3 -12.9577 1631.65 8284.38 -12.4429 1630.76 
8284.25 -13.9564 1631.64 8284.33 -13.4459 1630.77 8284.21 -14.9552 1631.64 
8284.28 -14.4486 1630.77 8284.16 -15.954 1631.63 8284.23 -15.4497 1630.77 
8284.11 -16.9528 1631.63 8284.18 -16.4498 1630.76 8284.06 -17.9516 1631.62 
8284.13 -17.4491 1630.76 8284.01 -18.9504 1631.61 8284.08 -18.4482 1630.75 
8283.96 -19.9492 1631.61 8284.03 -19.4471 1630.75 8283.91 -20.948 1631.6 
8283.99 -20.4459 1630.74 8284.76 -5.95998 1629.69 8284.68 -6.83247 1630.32 
8284.81 -5.9569 1628.69 8284.87 -5.95383 1627.69 8284.79 -6.83485 1628.22 
8284.85 -6.83047 1627.21 8284.92 -5.95076 1626.69 8284.74 -6.85814 1629.26 
8284.91 -6.82466 1626.2 8284.6 -8.93532 1629.93 8284.55 -9.92086 1629.86 
8284.5 -10.9132 1629.83 8284.45 -11.9179 1629.85 8284.4 -12.9279 1629.88 
8284.35 -13.9369 1629.89 8284.3 -14.9422 1629.9 8284.25 -15.9449 1629.9 
8284.2 -16.9458 1629.9 8284.16 -17.9455 1629.89 8284.11 -18.9448 1629.89 
8284.06 -19.9438 1629.88 8284.83 -7.69818 1626.74 8284.65 -7.82694 1629.87 
8284.78 -7.70703 1627.75 8284.72 -7.69457 1628.75 8284.59 -10.3483 1628.86 
8284.53 -11.3739 1628.88 8284.48 -12.3993 1628.95 8284.43 -13.4196 1629 
8284.38 -14.4302 1629.02 8284.33 -15.4371 1629.03 8284.28 -16.4406 1629.03 
8284.23 -17.4419 1629.03 8284.18 -18.4419 1629.02 8284.13 -19.4412 1629.02 
8284.71 -8.59568 1628.27 8284.76 -8.57139 1627.29 8284.82 -8.55244 1626.27 
8284.66 -8.47848 1629.17 8284.63 -9.35587 1628.97 8284.56 -11.8651 1627.96 
8284.5 -12.9042 1628.09 8284.45 -13.9128 1628.13 8284.4 -14.9244 1628.15 
8284.35 -15.9322 1628.16 8284.3 -16.9364 1628.16 8284.25 -17.938 1628.15 
8284.2 -18.9379 1628.15 8284.68 -9.63067 1627.84 8284.62 -10.8102 1627.82 
8284.75 -9.31983 1626.82 8284.79 -9.48334 1625.9 8284.53 -13.3832 1627.22 
8284.48 -14.4029 1627.27 8284.42 -15.4168 1627.29 8284.37 -16.4258 1627.29 
8284.33 -17.4312 1627.28 8284.71 -10.2603 1626.77 8284.65 -11.4413 1626.66 
8284.58 -12.4352 1627.21 8284.76 -10.4918 1625.61 8284.5 -14.8907 1626.42 
8284.45 -15.902 1626.41 8284.4 -16.9146 1626.4 8284.73 -11.5719 1625.16 
8284.62 -12.6636 1626.19 8284.55 -13.8655 1626.4 8284.47 -16.3741 1625.53 
8284.57 -14.3689 1625.55 8284.52 -15.3521 1625.54 8284.61 -13.4581 1625.59 
8284.68 -12.7395 1625.01 8290.3 -12.2539 1632.36 8290.35 -11.2551 1632.37 
8289.4 -11.6989 1632.25 8289.51 -10.7093 1632.27 8290.25 -13.2527 1632.35 
8289.33 -12.6949 1632.24 8290.21 -14.2515 1632.35 8289.3 -13.6954 1632.24 
8290.16 -15.2503 1632.34 8289.27 -14.7056 1632.24 8290.11 -16.249 1632.34 
8289.21 -15.7118 1632.23 8290.06 -17.2478 1632.33 8289.16 -16.7021 1632.22 
8290.01 -18.2466 1632.33 8289.13 -17.702 1632.22 8289.96 -19.2454 1632.32 
8289.11 -18.6923 1632.22 8289.91 -20.2442 1632.31 8289.09 -19.6772 1632.22 
8289.86 -21.243 1632.31 8289.05 -20.669 1632.21 8289.81 -22.2418 1632.3 
8288.98 -21.6599 1632.2 8289.77 -23.2406 1632.3 8288.9 -22.6597 1632.19 
8289.72 -24.2394 1632.29 8288.8 -23.6625 1632.18 8289.67 -25.2382 1632.28 
8288.73 -24.6687 1632.17 8289.62 -26.237 1632.28 8288.68 -25.679 1632.17 
8289.57 -27.2357 1632.27 8288.64 -26.684 1632.16 8289.52 -28.2345 1632.27 
8288.64 -27.6758 1632.16 8287.62 -6.11363 1632.04 8286.63 -6.06446 1631.92 
8287.12 -6.98275 1631.98 8285.64 -6.01529 1631.81 8285.44 -7.37876 1631.78 
8285.35 -9.47702 1631.77 8285.32 -11.5042 1631.77 8285.24 -13.4978 1631.76 
8285.13 -15.5085 1631.75 8285.01 -17.5092 1631.73 8284.88 -19.5166 1631.72 
8283.86 -21.9468 1631.6 8284.74 -21.5107 1631.7 8288.61 -6.16281 1632.16 
8288.14 -7.05208 1632.1 8286.23 -6.87706 1631.88 8285.42 -8.43731 1631.78 
8289.19 -7.07007 1632.23 8285.32 -10.4942 1631.77 8285.3 -12.5014 1631.77 
8285.17 -14.5031 1631.75 8285.08 -16.503 1631.74 8284.95 -18.5187 1631.73 
8284.8 -20.5177 1631.71 8283.82 -22.9456 1631.59 8284.71 -22.5076 1631.7 
8284.73 -23.5018 1631.7 8289.59 -9.71299 1632.27 8289.61 -8.73399 1632.28 
8288.78 -9.15498 1632.18 8288.73 -10.1472 1632.17 8288.53 -11.115 1632.15 
8288.37 -12.1153 1632.13 8288.33 -13.1487 1632.13 8288.39 -14.1491 1632.13 
8288.34 -15.1774 1632.13 8288.2 -16.165 1632.11 8288.24 -17.1622 1632.12 
8288.22 -18.1802 1632.11 8288.22 -19.1226 1632.11 8288.25 -20.1049 1632.12 
8288.18 -21.0626 1632.11 8288.08 -22.0425 1632.1 8287.92 -23.052 1632.08 
8287.78 -24.0708 1632.06 8287.72 -25.1083 1632.05 8287.68 -26.1389 1632.05 
8287.67 -27.1584 1632.05 8286.07 -15.0653 1631.86 8286.19 -10.0028 1631.87 
8287.56 -7.86872 1632.04 8286.42 -7.87607 1631.9 8288.69 -8.06862 1632.17 
8289.69 -7.85614 1632.29 8286.13 -14.0406 1631.87 8286.27 -13.0525 1631.88 
8285.89 -18.0985 1631.84 8285.71 -20.1137 1631.82 8285.96 -17.0604 1631.85 
8285.55 -22.0565 1631.8 8284.73 -24.4919 1631.7 8285.73 -24.0094 1631.82 
8285.61 -21.0978 1631.8 8285.85 -19.1002 1631.83 8286.23 -9.00148 1631.88 
8286.31 -12.0241 1631.89 8286.22 -11.0256 1631.88 8286.1 -16.0651 1631.86 
8285.61 -23.0402 1631.8 8285.72 -25.0272 1631.82 8287.05 -18.6504 1631.97 
8287.81 -10.4401 1632.06 8287.36 -11.4359 1632.01 8287.32 -12.5758 1632.01 
8287.28 -13.6937 1632 8287.63 -14.6315 1632.04 8287.18 -15.539 1631.99 
8287.12 -16.709 1631.98 8287.48 -17.6697 1632.03 8287.38 -20.4626 1632.01 
8287.29 -21.3978 1632 8287.16 -22.3646 1631.99 8286.76 -23.4067 1631.94 
8286.74 -24.5231 1631.94 8286.7 -25.5804 1631.93 8286.94 -10.5029 1631.96 
8286.5 -20.7445 1631.91 8286.31 -22.5292 1631.89 8286.83 -14.5933 1631.95 
8286.63 -19.7633 1631.92 8287.15 -9.56704 1631.99 8286.41 -21.6776 1631.9 
8287.04 -8.61598 1631.97 8287.5 -19.5984 1632.03 8286.67 -17.6383 1631.93 
8287.9 -8.783 1632.07 8288.06 -9.6193 1632.09 8290.41 -27.7777 1632.37 
8290.36 -28.7765 1632.37 8290.45 -26.7789 1632.38 8290.5 -25.7801 1632.38 
8290.55 -24.7814 1632.39 8290.6 -23.7826 1632.4 8290.65 -22.7838 1632.4 
8290.7 -21.785 1632.41 8290.75 -20.7862 1632.41 8290.8 -19.7874 1632.42 
8290.84 -18.7886 1632.42 8290.89 -17.7898 1632.43 8290.94 -16.791 1632.44 
8290.99 -15.7922 1632.44 8291.24 -28.3196 1632.47 8291.19 -29.3184 1632.47 
8291.29 -27.3208 1632.48 8291.34 -26.322 1632.48 8291.39 -25.3232 1632.49 
8291.44 -24.3244 1632.49 8291.48 -23.3256 1632.5 8291.53 -22.3268 1632.51 
8291.58 -21.3281 1632.51 8291.63 -20.3293 1632.52 8291.68 -19.3305 1632.52 
8291.14 -30.3172 1632.46 8292.03 -29.8596 1632.56 8291.98 -30.8584 1632.56 
8292.07 -28.8608 1632.57 8292.12 -27.862 1632.58 8292.17 -26.8632 1632.58 
8292.22 -25.8644 1632.59 8292.27 -24.8656 1632.59 8292.32 -23.8668 1632.6 
8292.86 -30.3985 1632.66 8292.81 -31.3973 1632.66 8292.91 -29.3997 1632.67 
8292.96 -28.401 1632.67 8293.01 -27.4022 1632.68 8286.2 -6.03805 1630.95 
8285.95 -6.01976 1629.97 8285.91 -6.01225 1628.97 8285.94 -6.00813 1627.97 
8286 -6.00511 1626.97 8288.24 -6.14028 1631.38 8289.06 -6.18175 1631.62 
8287.29 -6.09214 1631.16 8290.04 -6.21278 1628.75 8290.13 -6.21179 1627.78 
8289.08 -6.16255 1628.19 8289.16 -6.16105 1627.21 8289.96 -6.21465 1629.71 
8289.02 -6.16524 1629.14 8289.91 -6.21746 1630.62 8289.01 -6.16977 1630.05 
8289.03 -6.17596 1630.89 8287.07 -6.07638 1630.23 8286.99 -6.06691 1629.27 
8287 -6.06176 1628.29 8287.06 -6.05868 1627.31 8288.1 -6.12822 1630.53 
8288.08 -6.11105 1627.72 8288.16 -6.10903 1626.73 8288.03 -6.11423 1628.69 
8288.03 -6.11978 1629.63 

CELLS 527 2108
3 0 1 2 
3 3 0 4 
3 5 3 6 
3 3 4 6 
3 7 5 8 
3 5 6 8 
3 9 7 10 
3 7 8 10 
3 11 9 12 
3 9 10 12 
3 13 11 14 
3 11 12 14 
3 15 13 16 
3 13 14 16 
3 17 15 18 
3 15 16 18 
3 19 17 20 
3 17 18 20 
3 21 19 22 
3 19 20 22 
3 23 21 24 
3 21 22 24 
3 25 23 26 
3 23 24 26 
3 27 25 28 
3 25 26 28 
3 29 27 30 
3 27 28 30 
3 2 31 32 
3 33 34 35 
3 35 34 36 
3 34 37 36 
3 31 33 38 
3 37 39 36 
3 31 38 32 
3 0 2 32 
3 38 33 35 
3 4 0 32 
3 8 6 40 
3 10 8 41 
3 8 40 41 
3 12 10 42 
3 10 41 42 
3 14 12 43 
3 12 42 43 
3 16 14 44 
3 14 43 44 
3 18 16 45 
3 16 44 45 
3 20 18 46 
3 18 45 46 
3 22 20 47 
3 20 46 47 
3 24 22 48 
3 22 47 48 
3 26 24 49 
3 24 48 49 
3 28 26 50 
3 26 49 50 
3 30 28 51 
3 28 50 51 
3 36 39 52 
3 32 38 53 
3 35 36 54 
3 36 52 54 
3 4 32 53 
3 38 35 55 
3 35 54 55 
3 6 4 53 
3 40 6 53 
3 38 55 53 
3 42 41 56 
3 43 42 57 
3 42 56 57 
3 44 43 58 
3 43 57 58 
3 45 44 59 
3 44 58 59 
3 46 45 60 
3 45 59 60 
3 47 46 61 
3 46 60 61 
3 48 47 62 
3 47 61 62 
3 49 48 63 
3 48 62 63 
3 50 49 64 
3 49 63 64 
3 51 50 65 
3 50 64 65 
3 55 54 66 
3 54 52 67 
3 52 68 67 
3 53 55 69 
3 41 40 70 
3 55 66 69 
3 56 41 70 
3 66 54 67 
3 40 53 69 
3 70 40 69 
3 58 57 71 
3 59 58 72 
3 58 71 72 
3 60 59 73 
3 59 72 73 
3 61 60 74 
3 60 73 74 
3 62 61 75 
3 61 74 75 
3 63 62 76 
3 62 75 76 
3 64 63 77 
3 63 76 77 
3 65 64 78 
3 64 77 78 
3 56 70 79 
3 57 56 80 
3 56 79 80 
3 69 66 70 
3 67 68 81 
3 68 82 81 
3 70 66 79 
3 79 66 67 
3 57 80 71 
3 67 81 79 
3 73 72 83 
3 74 73 84 
3 73 83 84 
3 75 74 85 
3 74 84 85 
3 76 75 86 
3 75 85 86 
3 77 76 87 
3 76 86 87 
3 80 79 88 
3 79 81 88 
3 81 82 88 
3 71 80 89 
3 80 88 89 
3 72 71 90 
3 90 71 89 
3 82 91 88 
3 72 90 83 
3 85 84 92 
3 86 85 93 
3 85 92 93 
3 87 86 94 
3 86 93 94 
3 88 91 89 
3 95 89 91 
3 83 90 96 
3 90 89 96 
3 84 83 97 
3 83 96 97 
3 92 84 97 
3 89 95 96 
3 94 93 98 
3 92 97 99 
3 93 92 100 
3 92 99 100 
3 97 96 101 
3 99 97 101 
3 93 100 98 
3 96 95 102 
3 101 96 102 
3 103 104 105 
3 104 106 105 
3 107 103 108 
3 103 105 108 
3 109 107 110 
3 107 108 110 
3 111 109 112 
3 109 110 112 
3 113 111 114 
3 111 112 114 
3 115 113 116 
3 113 114 116 
3 117 115 118 
3 115 116 118 
3 119 117 120 
3 117 118 120 
3 121 119 122 
3 119 120 122 
3 123 121 124 
3 121 122 124 
3 125 123 126 
3 123 124 126 
3 127 125 128 
3 125 126 128 
3 129 127 130 
3 127 128 130 
3 131 129 132 
3 129 130 132 
3 133 131 134 
3 131 132 134 
3 135 133 136 
3 133 134 136 
3 137 135 138 
3 135 136 138 
3 139 140 141 
3 142 1 0 
3 0 3 143 
3 5 7 144 
3 9 11 145 
3 13 15 146 
3 17 19 147 
3 21 23 148 
3 25 27 149 
3 29 150 151 
3 142 0 143 
3 152 139 153 
3 153 139 141 
3 140 142 154 
3 143 3 155 
3 3 5 155 
3 152 153 156 
3 5 144 155 
3 7 9 157 
3 11 13 158 
3 15 17 159 
3 19 21 160 
3 23 25 161 
3 27 29 162 
3 150 163 164 
3 161 25 149 
3 160 21 148 
3 144 7 157 
3 145 11 158 
3 146 15 159 
3 147 19 160 
3 148 23 161 
3 149 27 162 
3 151 150 164 
3 162 29 151 
3 164 163 165 
3 140 154 141 
3 159 17 147 
3 158 13 146 
3 157 9 145 
3 166 167 168 
3 106 166 169 
3 166 168 169 
3 105 106 170 
3 106 169 170 
3 108 105 171 
3 105 170 171 
3 110 108 172 
3 108 171 172 
3 112 110 173 
3 110 172 173 
3 114 112 174 
3 112 173 174 
3 116 114 175 
3 114 174 175 
3 118 116 176 
3 116 175 176 
3 120 118 177 
3 118 176 177 
3 122 120 178 
3 120 177 178 
3 124 122 179 
3 122 178 179 
3 126 124 180 
3 124 179 180 
3 128 126 181 
3 126 180 181 
3 130 128 182 
3 128 181 182 
3 132 130 183 
3 130 182 183 
3 134 132 184 
3 132 183 184 
3 136 134 185 
3 134 184 185 
3 138 136 186 
3 136 185 186 
3 159 147 187 
3 144 157 188 
3 153 141 189 
3 154 142 143 
3 143 155 190 
3 156 153 191 
3 153 189 191 
3 192 156 191 
3 146 159 193 
3 159 187 193 
3 158 146 194 
3 146 193 194 
3 148 161 195 
3 149 162 196 
3 160 148 197 
3 148 195 197 
3 151 164 198 
3 165 199 200 
3 162 151 201 
3 151 198 201 
3 161 149 202 
3 149 196 202 
3 155 144 203 
3 144 188 203 
3 167 192 191 
3 145 158 204 
3 158 194 204 
3 154 143 190 
3 168 167 191 
3 155 203 190 
3 188 157 205 
3 157 145 205 
3 145 204 205 
3 161 202 195 
3 189 141 190 
3 196 162 201 
3 147 160 206 
3 154 190 141 
3 160 197 206 
3 198 164 207 
3 164 165 207 
3 165 200 207 
3 147 206 187 
3 200 199 208 
3 195 202 209 
3 170 169 210 
3 171 170 211 
3 170 210 211 
3 172 171 212 
3 171 211 212 
3 173 172 213 
3 172 212 213 
3 174 173 214 
3 173 213 214 
3 175 174 215 
3 174 214 215 
3 176 175 216 
3 175 215 216 
3 177 176 217 
3 176 216 217 
3 178 177 209 
3 180 179 218 
3 181 180 219 
3 180 218 219 
3 182 181 220 
3 181 219 220 
3 183 182 221 
3 182 220 221 
3 184 183 222 
3 183 221 222 
3 185 184 223 
3 184 222 223 
3 188 205 224 
3 196 201 225 
3 198 207 226 
3 193 187 227 
3 194 193 213 
3 205 204 211 
3 207 200 221 
3 200 208 222 
3 187 206 215 
3 202 196 228 
3 196 225 228 
3 206 197 216 
3 203 188 229 
3 188 224 229 
3 204 194 212 
3 201 198 230 
3 225 201 230 
3 198 226 230 
3 190 203 231 
3 179 178 232 
3 190 231 189 
3 211 204 212 
3 197 195 233 
3 191 189 234 
3 169 168 235 
3 218 179 232 
3 210 169 235 
3 209 202 228 
3 195 209 233 
3 231 203 229 
3 212 194 213 
3 168 191 234 
3 215 206 216 
3 222 208 223 
3 221 200 222 
3 189 231 234 
3 168 234 235 
3 232 178 209 
3 210 235 229 
3 177 217 209 
3 197 233 216 
3 217 216 233 
3 220 219 230 
3 221 220 226 
3 234 231 229 
3 226 207 221 
3 235 234 229 
3 224 205 211 
3 213 193 227 
3 227 187 215 
3 218 225 219 
3 209 228 232 
3 218 232 228 
3 211 210 224 
3 233 209 217 
3 229 224 210 
3 226 220 230 
3 214 213 227 
3 215 214 227 
3 218 228 225 
3 230 219 225 
3 135 137 236 
3 137 237 236 
3 133 135 238 
3 135 236 238 
3 131 133 239 
3 133 238 239 
3 129 131 240 
3 131 239 240 
3 127 129 241 
3 129 240 241 
3 125 127 242 
3 127 241 242 
3 123 125 243 
3 125 242 243 
3 121 123 244 
3 123 243 244 
3 119 121 245 
3 121 244 245 
3 117 119 246 
3 119 245 246 
3 115 117 247 
3 117 246 247 
3 113 115 248 
3 115 247 248 
3 111 113 249 
3 113 248 249 
3 236 237 250 
3 237 251 250 
3 238 236 252 
3 236 250 252 
3 239 238 253 
3 238 252 253 
3 240 239 254 
3 239 253 254 
3 241 240 255 
3 240 254 255 
3 242 241 256 
3 241 255 256 
3 243 242 257 
3 242 256 257 
3 244 243 258 
3 243 257 258 
3 245 244 259 
3 244 258 259 
3 246 245 260 
3 245 259 260 
3 251 261 262 
3 261 263 262 
3 250 251 264 
3 251 262 264 
3 252 250 265 
3 250 264 265 
3 253 252 266 
3 252 265 266 
3 254 253 267 
3 253 266 267 
3 255 254 268 
3 254 267 268 
3 256 255 269 
3 255 268 269 
3 262 263 270 
3 263 271 270 
3 264 262 272 
3 262 270 272 
3 265 264 273 
3 264 272 273 
3 266 265 274 
3 265 273 274 
3 1 142 2 
3 275 2 142 
3 31 2 276 
3 2 275 276 
3 33 31 277 
3 31 276 277 
3 34 33 278 
3 33 277 278 
3 37 34 279 
3 34 278 279 
3 139 152 280 
3 152 281 280 
3 140 139 282 
3 139 280 282 
3 282 275 140 
3 283 284 285 
3 284 286 285 
3 287 283 288 
3 283 285 288 
3 289 287 290 
3 287 288 290 
3 289 290 291 
3 142 140 275 
3 276 275 292 
3 275 282 292 
3 277 276 293 
3 276 292 293 
3 278 277 294 
3 277 293 294 
3 279 278 295 
3 278 294 295 
3 280 281 291 
3 282 280 296 
3 292 282 296 
3 280 291 296 
3 285 286 297 
3 286 298 297 
3 288 285 299 
3 285 297 299 
3 290 288 300 
3 288 299 300 
3 291 290 296 
3 293 292 300 
3 294 293 299 
3 295 294 297 
3 296 290 300 
3 300 292 296 
3 293 300 299 
3 297 294 299 
3 295 297 298 

CELL_TYPES 527
5
5
5
5
5
5
5
5
5
5
5
5
5
5
5
5
5
5
5
5
5
5
5
5
5
5
5
5
5
5
5
5
5
5
5
5
5
5
5
5
5
5
5
5
5
5
5
5
5
5
5
5
5
5
5
5
5
5
5
5
5
5
5
5
5
5
5
5
5
5
5
5
5
5
5
5
5
5
5
5
5
5
5
5
5
5
5
5
5
5
5
5
5
5
5
5
5
5
5
5
5
5
5
5
5
5
5
5
5
5
5
5
5
5
5
5
5
5
5
5
5
5
5
5
5
5
5
5
5
5
5
5
5
5
5
5
5
5
5
5
5
5
5
5
5
5
5
5
5
5
5
5
5
5
5
5
5
5
5
5
5
5
5
5
5
5
5
5
5
5
5
5
5
5
5
5
5
5
5
5
5
5
5
5
5
5
5
5
5
5
5
5
5
5
5
5
5
5
5
5
5
5
5
5
5
5
5
5
5
5
5
5
5
5
5
5
5
5
5
5
5
5
5
5
5
5
5
5
5
5
5
5
5
5
5
5
5
5
5
5
5
5
5
5
5
5
5
5
5
5
5
5
5
5
5
5
5
5
5
5
5
5
5
5
5
5
5
5
5
5
5
5
5
5
5
5
5
5
5
5
5
5
5
5
5
5
5
5
5
5
5
5
5
5
5
5
5
5
5
5
5
5
5
5
5
5
5
5
5
5
5
5
5
5
5
5
5
5
5
5
5
5
5
5
5
5
5
5
5
5
5
5
5
5
5
5
5
5
5
5
5
5
5
5
5
5
5
5
5
5
5
5
5
5
5
5
5
5
5
5
5
5
5
5
5
5
5
5
5
5
5
5
5
5
5
5
5
5
5
5
5
5
5
5
5
5
5
5
5
5
5
5
5
5
5
5
5
5
5
5
5
5
5
5
5
5
5
5
5
5
5
5
5
5
5
5
5
5
5
5
5
5
5
5
5
5
5
5
5
5
5
5
5
5
5
5
5
5
5
5
5
5
5
5
5
5
5
5
5
5
5
5
5
5
5
5
5
5
5
5
5
5
5
5
5
5
5
5
5
5
5
5
5
5
5
5
5
5
5
5
5
5
5
5
5
5
5
5
5
5
5
5
5
5
5
5
5
5
5
5
5
5
5
5
5
5
5
5
5
5
5
5
5
5
5
5
5
5
5
5
5
5
5
5
5
5
5

